<svg fill="#000000" height="200px" width="200px" version="1.1" id="Layer_1" xmlns="http://www.w3.org/2000/svg"
    xmlns:xlink="http://www.w3.org/1999/xlink" viewBox="0 0 511.984 511.984" xml:space="preserve">
    <g id="SVGRepo_bgCarrier" stroke-width="0"></g>
    <g id="SVGRepo_tracerCarrier" stroke-linecap="round" stroke-linejoin="round"></g>
    <g id="SVGRepo_iconCarrier">
        <g>
            <g>
                <path
                    d="M465.505,31.999H46.463C20.847,31.999,0,52.686,0,78.142v35.711c0,25.439,20.847,46.143,46.463,46.143h419.059 c25.615,0,46.463-20.703,46.463-46.143V78.142C511.984,52.686,491.137,31.999,465.505,31.999z M479.985,113.852 c0,7.792-6.496,14.144-14.48,14.144H46.463c-7.968,0-14.464-6.352-14.464-14.144V78.142c0-7.808,6.496-14.144,14.464-14.144 h419.059c7.968,0,14.464,6.336,14.464,14.144V113.852z">
                </path>
            </g>
        </g>
        <g>
            <g>
                <path
                    d="M351.989,79.998H111.997c-8.832,0-16,7.168-16,16s7.168,16,16,16h239.992c8.832,0,16-7.168,16-16 S360.821,79.998,351.989,79.998z">
                </path>
            </g>
        </g>
        <g>
            <g>
                <path
                    d="M75.838,84.301c-5.92-6.08-16.799-6.08-22.719,0c-2.88,2.88-4.64,7.04-4.64,11.2c0,4.32,1.76,8.48,4.64,11.36 c3.04,3.04,7.2,4.64,11.36,4.64c4.16,0,8.32-1.6,11.36-4.64c2.88-3.04,4.64-7.04,4.64-11.36 C80.477,91.341,78.718,87.181,75.838,84.301z">
                </path>
            </g>
        </g>
        <g>
            <g>
                <path
                    d="M460.146,84.301c-5.92-6.08-16.639-6.08-22.559,0c-3.04,2.88-4.64,7.04-4.64,11.2c0,4.32,1.6,8.32,4.64,11.36 c3.04,3.04,7.04,4.64,11.36,4.64c4.16,0,8.32-1.6,11.2-4.64c3.04-3.04,4.8-7.04,4.8-11.36 C464.945,91.341,463.186,87.181,460.146,84.301z">
                </path>
            </g>
        </g>
        <g>
            <g>
                <path
                    d="M411.987,84.301c-5.92-6.08-16.64-6.08-22.719,0c-2.88,2.88-4.64,7.04-4.64,11.2c0,4.32,1.76,8.48,4.64,11.36 c3.04,3.04,7.2,4.64,11.36,4.64c4.32,0,8.32-1.6,11.36-4.64s4.64-7.04,4.64-11.36C416.627,91.341,415.027,87.181,411.987,84.301z">
                </path>
            </g>
        </g>
        <g>
            <g>
                <path
                    d="M465.009,191.994H335.99c-8.832,0-16,7.168-16,16s7.168,15.999,16,15.999h129.02c7.264,0,14.976,4.32,14.976,12.336 v36.399c0,7.856-7.28,15.264-14.976,15.264H335.99c-8.832,0-16,7.152-16,15.999s7.168,16,16,16h129.02 c25.471,0,46.975-21.647,46.975-47.263v-36.399C511.984,211.465,491.345,191.994,465.009,191.994z">
                </path>
            </g>
        </g>
        <g>
            <g>
                <path
                    d="M175.995,287.991H46.687c-7.68,0-14.688-7.28-14.688-15.264v-36.399c0-8.096,7.392-12.336,14.688-12.336h129.308 c8.832,0,16-7.168,16-15.999s-7.168-16-16-16H46.687C20.511,191.994,0,211.465,0,236.329v36.399 c0,25.615,21.375,47.263,46.687,47.263h129.308c8.832,0,16-7.152,16-16S184.826,287.991,175.995,287.991z">
                </path>
            </g>
        </g>
        <g>
            <g>
                <path
                    d="M159.995,239.993h-47.998c-8.832,0-16,7.168-16,16s7.168,16,16,16h47.998c8.832,0,16-7.168,16-16 S168.827,239.993,159.995,239.993z">
                </path>
            </g>
        </g>
        <g>
            <g>
                <path
                    d="M75.838,243.816c-5.92-5.92-16.799-5.92-22.719,0c-2.88,3.04-4.64,7.2-4.64,11.36c0,4.32,1.76,8.32,4.8,11.36 c2.88,3.04,7.04,4.64,11.2,4.64c4.16,0,8.32-1.6,11.36-4.64s4.64-7.04,4.64-11.36C80.477,251.016,78.718,246.856,75.838,243.816z">
                </path>
            </g>
        </g>
        <g>
            <g>
                <path
                    d="M460.146,243.816c-5.92-5.92-16.639-5.92-22.559,0c-3.04,3.04-4.64,7.2-4.64,11.36c0,4.32,1.6,8.32,4.64,11.36 c3.04,3.04,7.04,4.64,11.36,4.64c4.16,0,8.32-1.6,11.2-4.64c3.04-3.04,4.8-7.04,4.8-11.36 C464.945,251.016,463.186,246.856,460.146,243.816z">
                </path>
            </g>
        </g>
        <g>
            <g>
                <path
                    d="M411.987,243.976c-5.92-6.08-16.799-6.08-22.719-0.16c-2.88,3.04-4.64,7.2-4.64,11.36c0,4.32,1.76,8.32,4.8,11.36 c2.88,3.04,7.04,4.64,11.2,4.64c4.32,0,8.32-1.6,11.36-4.64s4.64-7.04,4.64-11.36 C416.627,251.016,415.027,246.856,411.987,243.976z">
                </path>
            </g>
        </g>
        <g>
            <g>
                <path
                    d="M465.505,351.989H46.463C20.847,351.989,0,372.676,0,398.132v35.727c0,25.439,20.847,46.127,46.463,46.127h419.059 c25.615,0,46.463-20.687,46.463-46.143v-35.727C511.984,372.676,491.137,351.989,465.505,351.989z M479.985,433.858 c0,7.776-6.496,14.128-14.48,14.128H46.463c-7.968,0-14.464-6.352-14.464-14.144v-35.727c0-7.792,6.496-14.128,14.464-14.128 h419.059c7.968,0,14.464,6.336,14.464,14.144V433.858z">
                </path>
            </g>
        </g>
        <g>
            <g>
                <path
                    d="M351.989,399.988H111.997c-8.832,0-16,7.152-16,16s7.168,16,16,16h239.992c8.832,0,16-7.152,16-16 S360.821,399.988,351.989,399.988z">
                </path>
            </g>
        </g>
        <g>
            <g>
                <path
                    d="M75.838,403.187c-5.92-5.92-16.799-5.92-22.559,0c-3.04,3.024-4.8,7.184-4.8,11.36c0,4.16,1.76,8.32,4.64,11.36 c3.04,2.88,7.2,4.64,11.36,4.64c4.16,0,8.32-1.776,11.36-4.64c2.88-3.04,4.64-7.2,4.64-11.36 C80.477,410.371,78.718,406.211,75.838,403.187z">
                </path>
            </g>
        </g>
        <g>
            <g>
                <path
                    d="M460.146,403.187c-5.76-5.92-16.639-5.92-22.559,0c-3.04,3.024-4.64,7.184-4.64,11.36c0,4.16,1.6,8.32,4.64,11.36 c3.04,2.88,7.04,4.64,11.36,4.64c4.16,0,8.32-1.776,11.2-4.64c3.04-3.04,4.8-7.2,4.8-11.36 C464.945,410.371,463.186,406.211,460.146,403.187z">
                </path>
            </g>
        </g>
        <g>
            <g>
                <path
                    d="M411.987,403.187c-5.92-5.92-16.639-5.92-22.559,0c-3.04,3.024-4.8,7.184-4.8,11.36c0,4.16,1.76,8.32,4.8,11.36 c2.88,2.88,7.04,4.64,11.2,4.64c4.32,0,8.32-1.776,11.36-4.64c3.04-3.04,4.64-7.2,4.64-11.36 C416.627,410.371,415.027,406.211,411.987,403.187z">
                </path>
            </g>
        </g>
        <g>
            <g>
                <path
                    d="M256.088,200.026c-30.399,0-55.118,24.719-55.118,55.102s24.719,55.102,55.118,55.102s55.118-24.719,55.118-55.102 S286.487,200.026,256.088,200.026z M256.088,278.231c-12.752,0-23.119-10.368-23.119-23.103c0-12.736,10.368-23.103,23.119-23.103 s23.119,10.368,23.119,23.103S268.84,278.231,256.088,278.231z">
                </path>
            </g>
        </g>
        <g>
            <g>
                <path
                    d="M315.35,244.632c-6.08-5.92-16.639-5.92-22.719,0c-2.88,3.04-4.64,7.2-4.64,11.36c0,4.144,1.76,8.32,4.64,11.36 c3.04,2.88,7.2,4.64,11.36,4.64c4.16,0,8.32-1.776,11.36-4.64c2.88-3.04,4.64-7.2,4.64-11.36 C319.99,251.816,318.23,247.656,315.35,244.632z">
                </path>
            </g>
        </g>
        <g>
            <g>
                <path
                    d="M219.353,244.632c-6.08-5.92-16.639-5.92-22.719,0c-2.88,3.04-4.64,7.2-4.64,11.36c0,4.144,1.76,8.32,4.64,11.36 c3.04,2.88,7.2,4.64,11.36,4.64c4.16,0,8.32-1.776,11.36-4.64c2.88-3.04,4.64-7.2,4.64-11.36 C223.993,251.816,222.233,247.656,219.353,244.632z">
                </path>
            </g>
        </g>
        <g>
            <g>
                <path
                    d="M267.352,196.634c-5.92-5.92-16.799-5.92-22.719,0c-2.88,3.04-4.64,7.2-4.64,11.36c0,4.144,1.76,8.32,4.64,11.36 c3.04,2.88,7.2,4.64,11.36,4.64s8.32-1.776,11.36-4.64c2.88-3.04,4.64-7.2,4.64-11.36 C271.992,203.818,270.232,199.658,267.352,196.634z">
                </path>
            </g>
        </g>
        <g>
            <g>
                <path
                    d="M267.352,292.631c-6.08-5.92-16.639-5.92-22.719,0c-2.88,3.024-4.64,7.216-4.64,11.36c0,4.144,1.76,8.304,4.64,11.36 c3.04,2.88,7.2,4.64,11.36,4.64s8.32-1.776,11.36-4.64c2.88-3.04,4.64-7.2,4.64-11.36 C271.992,299.831,270.232,295.655,267.352,292.631z">
                </path>
            </g>
        </g>
        <g>
            <g>
                <path
                    d="M303.174,208.026c-6.256-6.256-16.367-6.256-22.623,0l-8.16,8.16c-6.256,6.256-6.256,16.367,0,22.623 c3.12,3.12,7.216,4.688,11.312,4.688s8.192-1.568,11.312-4.688l8.16-8.16C309.43,224.393,309.43,214.281,303.174,208.026z">
                </path>
            </g>
        </g>
        <g>
            <g>
                <path
                    d="M239.817,271.576c-6.256-6.256-16.367-6.256-22.623,0l-8.192,8.192c-6.256,6.256-6.256,16.367,0,22.623 c3.12,3.12,7.216,4.688,11.312,4.688c4.08,0,8.176-1.568,11.312-4.688l8.192-8.192 C246.072,287.943,246.072,277.831,239.817,271.576z">
                </path>
            </g>
        </g>
        <g>
            <g>
                <path
                    d="M239.672,216.217l-8.16-8.128c-6.256-6.24-16.383-6.24-22.623,0.048c-6.24,6.256-6.224,16.384,0.048,22.623l8.16,8.128 c3.12,3.12,7.216,4.672,11.296,4.672c4.112,0,8.224-1.568,11.328-4.72C245.96,232.585,245.944,222.457,239.672,216.217z">
                </path>
            </g>
        </g>
        <g>
            <g>
                <path
                    d="M303.271,279.671l-8.16-8.16c-6.256-6.256-16.367-6.256-22.623,0c-6.256,6.256-6.256,16.367,0,22.623l8.16,8.16 c3.12,3.12,7.216,4.688,11.312,4.688s8.192-1.568,11.312-4.688C309.526,296.039,309.526,285.927,303.271,279.671z">
                </path>
            </g>
        </g>
    </g>
</svg>